# xmcd
#
# Track frame offsets: 
#        150
#        16998
#        30631
#        43831
#        58841
#        74727
#        93635
#        106299
#        124786
#        139341
#        154070
#        166529
#        182329
#        199502
#        211777
#        227148
#        242083
#        258236
#        275778
#        291984
#
# Disc length: 4082 seconds
#
# Revision: 0
# Processed by: cddbd v1.5.2PL0 Copyright (c) Steve Scherf et al.
# Submitted via: ExactAudioCopy v1.1
#
DISCID=250ff014
DTITLE=Various Artist - 100 x Zomer 2017 - CD 5
DYEAR=2017
DGENRE=Pop
TTITLE0=Zara Larsson - Ain't My Fault
TTITLE1=Hailee Steinfeld and Grey Feat. Zedd - Starving
TTITLE2=Julia Michaels - Issues
TTITLE3=Mr. Probz - Nothing Really Matters (Afrojack Remix)
TTITLE4=Alan Walker - Faded
TTITLE5=G-Eazy Feat. Bebe Rexha - Me, Myself and I
TTITLE6=Ali B. Feat. Nielson - Glimp Van De Duivel
TTITLE7=Little Mix - Shout Out To My Ex
TTITLE8=Alok, Bruno Martini Feat. Zeeba - Hear Me Now
TTITLE9=Waylon - Our Song
TTITLE10=Aronchupa - I'm An Albatraoz
TTITLE11=AlunaGeorge Feat. Popcaan - I'm In Control
TTITLE12=DNCE - Toothbrush
TTITLE13=Cheat Codes Feat. Dante Klein - Let Me Hold You (Turn Me On)
TTITLE14=Santa Esmeralda - Don't Let Me Be Misunderstood
TTITLE15=Andy Grammer - Fresh Eyes
TTITLE16=Opus III - It's A Fine Day
TTITLE17=Jamiroquai - Cloud 9
TTITLE18=M.O. Feat. Kent Jones - Not In Love
TTITLE19=Neiked Feat. Dye - Sexual
EXTD=
EXTT0=
EXTT1=
EXTT2=
EXTT3=
EXTT4=
EXTT5=
EXTT6=
EXTT7=
EXTT8=
EXTT9=
EXTT10=
EXTT11=
EXTT12=
EXTT13=
EXTT14=
EXTT15=
EXTT16=
EXTT17=
EXTT18=
EXTT19=
PLAYORDER=
